<?xml version="1.0" encoding="UTF-8"?>
<svg id="Layer_1" data-name="Layer 1" xmlns="http://www.w3.org/2000/svg" viewBox="0 0 412.01 125.06">
  <defs>
    <style>
      .cls-1 {
        fill: #fdc713;
      }
    </style>
  </defs>
  <g>
    <path class="cls-1" d="M80.91,108.64l-4.82,1.63c-3.7,1.25-7.48,1.85-11.23,1.85-13.03,0-25.51-7.26-31.62-19.38l-7.11-14.1c-3.54-7.04-10.63-11.68-18.5-12.13l-7.63-.43,4.16-6.41c2.95-4.52,7.09-8.22,11.96-10.69,7.39-3.72,15.79-4.34,23.66-1.75,7.87,2.59,14.25,8.08,17.97,15.46l23.15,45.94Z"/>
    <path class="cls-1" d="M116.05,75.91l-4.83,1.63c-3.69,1.25-7.48,1.85-11.22,1.85-13.03,0-25.51-7.26-31.62-19.38l-7.11-14.1c-3.55-7.04-10.64-11.68-18.51-12.13l-7.63-.43,4.17-6.41c2.95-4.52,7.09-8.22,11.96-10.69,7.39-3.73,15.79-4.34,23.66-1.75,7.87,2.59,14.25,8.08,17.97,15.46l23.16,45.94Z"/>
  </g>
  <g>
    <g>
      <path class="cls-1" d="M140.66,72.4c1.14,2.86,2.88,5.2,5.21,6.99,2.33,1.8,5.01,2.7,8.04,2.7,2.21,0,4.33-.37,6.38-1.1,2.04-.74,3.76-1.76,5.15-3.07.49-.41,1.04-.59,1.66-.55.61.04,1.12.27,1.53.67l6.99,6.63c.41.41.61.92.61,1.53s-.2,1.12-.61,1.53c-2.7,2.87-5.89,5.03-9.57,6.5-3.68,1.47-7.73,2.21-12.15,2.21-4.09,0-7.87-.74-11.35-2.21-3.48-1.47-6.52-3.56-9.14-6.26-2.86-2.86-5.07-6.26-6.63-10.19-1.55-3.93-2.33-8.1-2.33-12.52,0-4.25.78-8.24,2.33-11.96,1.55-3.72,3.66-6.97,6.32-9.76,2.66-2.78,5.79-4.97,9.39-6.56,3.6-1.59,7.44-2.39,11.53-2.39,3.76,0,7.26.7,10.49,2.09,3.23,1.39,6.07,3.31,8.53,5.77,1.06.98,2.09,2.13,3.07,3.44.98,1.31,1.84,2.82,2.58,4.54.74,1.72,1.33,3.7,1.78,5.95.45,2.25.67,4.81.67,7.67,0,1.96-.12,4.09-.37,6.38-.16,1.31-.9,1.96-2.21,1.96h-37.92ZM153.67,48.96c-3.44,0-6.26.94-8.47,2.82-2.21,1.88-3.76,4.21-4.66,6.99h25.77c-.9-2.62-2.39-4.91-4.48-6.87-2.09-1.96-4.81-2.95-8.16-2.95Z"/>
      <path class="cls-1" d="M321.9,52.03c-.41.57-.92.9-1.53.98-.61.08-1.21-.08-1.78-.49-1.23-.9-2.58-1.64-4.05-2.21-1.47-.57-3.07-.86-4.79-.86-2.21,0-4.19.43-5.95,1.29-1.76.86-3.27,2.02-4.54,3.5-1.27,1.47-2.25,3.21-2.95,5.22-.7,2.01-1.04,4.11-1.04,6.32s.39,4.42,1.17,6.38c.78,1.96,1.84,3.68,3.19,5.15,1.35,1.47,2.96,2.62,4.85,3.44,1.88.82,3.88,1.23,6.01,1.23,1.96,0,3.82-.41,5.58-1.23,1.76-.82,3.25-1.96,4.48-3.44.49-.49,1.04-.72,1.66-.68.61.04,1.17.27,1.66.68l7.12,6.87c.49.41.71.92.67,1.53-.04.61-.27,1.17-.67,1.66-2.62,2.78-5.69,4.99-9.2,6.63-3.52,1.64-7.32,2.45-11.41,2.45-4.25,0-8.2-.76-11.84-2.27-3.64-1.51-6.81-3.66-9.51-6.44-2.7-2.78-4.81-6.03-6.32-9.76-1.51-3.72-2.27-7.79-2.27-12.21,0-4.01.72-7.87,2.15-11.6,1.43-3.72,3.46-7.01,6.07-9.88,2.62-2.86,5.71-5.17,9.26-6.93,3.56-1.76,7.5-2.68,11.84-2.76,5.97,0,11.66,1.88,17.06,5.64.49.33.82.78.98,1.35.16.57.04,1.15-.37,1.72l-5.52,8.71Z"/>
      <path class="cls-1" d="M383.01,90.19c-2.21,1.64-4.75,3.09-7.61,4.36-2.86,1.27-5.73,1.9-8.59,1.9-4.26,0-8.18-.78-11.78-2.33-3.6-1.55-6.69-3.72-9.26-6.5-2.58-2.78-4.6-6.05-6.07-9.82-1.47-3.76-2.21-7.85-2.21-12.27,0-4.25.78-8.24,2.33-11.96,1.55-3.72,3.68-6.99,6.38-9.82,2.7-2.82,5.83-5.05,9.39-6.69,3.56-1.64,7.38-2.45,11.47-2.45,2.86,0,5.68.63,8.47,1.9,2.78,1.27,5.28,2.72,7.49,4.36v-3.68c0-.65.22-1.21.68-1.66.45-.45,1-.68,1.66-.68h0c6.57,0,11.9,5.33,11.9,11.9v37.55c0,6.57-5.33,11.9-11.9,11.9h0c-.66,0-1.21-.22-1.66-.68-.45-.45-.68-1-.68-1.66v-3.68ZM352.33,65.53c0,2.21.41,4.28,1.23,6.2.82,1.92,1.92,3.62,3.31,5.09,1.39,1.47,3.01,2.64,4.85,3.5s3.78,1.29,5.83,1.29c2.21,0,4.21-.43,6.01-1.29,1.8-.86,3.37-2.02,4.72-3.5,1.35-1.47,2.39-3.17,3.13-5.09.74-1.92,1.1-3.99,1.1-6.2,0-2.21-.37-4.27-1.1-6.2-.74-1.92-1.78-3.62-3.13-5.09-1.35-1.47-2.93-2.64-4.72-3.5-1.8-.86-3.8-1.29-6.01-1.29-2.05,0-3.99.43-5.83,1.29s-3.46,2.02-4.85,3.5c-1.39,1.47-2.5,3.17-3.31,5.09-.82,1.92-1.23,3.99-1.23,6.2Z"/>
      <path class="cls-1" d="M275.28,54.98v37.39c0,2.11-1.72,3.83-3.84,3.83h-8.07c-.65,0-1.2-.22-1.66-.67-.45-.44-.67-.99-.67-1.66v-34.23c0-3.35-.74-5.95-2.21-7.79-.55-.69-1.19-1.24-1.94-1.68h-.01c-2.06-1.89-4.81-3.04-7.81-3.02-5.26.05-9.58,3.84-10.87,8.76-.27,1.02-.34,2.07-.34,3.12v30.27c0,3.81-3.09,6.9-6.9,6.9-3.8,0-6.89-3.09-6.89-6.9v-30.77c0-3.14-1.28-5.99-3.34-8.05-2.21-2.21-5.34-3.52-8.78-3.3-6.05.39-10.61,5.69-10.61,11.75v13.54s-.17,21.4-.17,21.4c0,1.56-.78,2.33-2.34,2.33h-9.57c-.65,0-1.2-.22-1.66-.67-.45-.44-.67-.99-.67-1.66v-56.69c0-.65.22-1.2.67-1.66.45-.45,1.01-.67,1.66-.67h2.92c2.48,0,5.36,1.37,7.54,3.12,3.72-3.19,8.55-5.1,13.83-5.1,2.08,0,4.07.31,5.97.86.01,0,.04.01.05.01,1.96.27,3.95.93,5.76,2.1.93.6,2.32,1.66,3.65,3.43.33.36.69.76,1.08,1.19,1.85,2.1,5.03,2.38,7.22.65,1.88-1.48,4.08-2.89,6.68-4.05,1.66-.74,4.33-1.9,8.08-2.29,1.94-.2,6.27-.42,10.63,1.31,2.66,1.05,4.59,2.53,4.86,2.74.58.44,1.13.92,1.64,1.43,1.85,1.8,3.32,3.95,4.43,6.44,1.1,2.5,1.66,5.26,1.66,8.29Z"/>
    </g>
    <g>
      <path class="cls-1" d="M406.88,39.51l-.36-1.9c-.05-.26-.12-.47-.21-.61-.09-.14-.22-.24-.39-.29s-.41-.08-.71-.08h-2.16s0,2.88,0,2.88h-.85v-7.12h3.04c.47,0,.88.07,1.24.22s.63.36.82.63.29.59.29.95c0,.5-.16.91-.47,1.24-.31.33-.72.51-1.23.55v.06c.45.03.79.14.99.35.21.2.35.53.44.99l.43,2.14h-.88ZM406.3,35.47c.28-.25.42-.59.42-1.01,0-.39-.14-.71-.42-.95-.28-.24-.65-.36-1.11-.36h-2.14s0,2.7,0,2.7h2.14c.46,0,.83-.13,1.11-.38Z"/>
      <path class="cls-1" d="M404.63,28.61c-4.07,0-7.37,3.31-7.37,7.37,0,4.07,3.31,7.37,7.37,7.37,4.07,0,7.37-3.31,7.37-7.37,0-4.07-3.31-7.37-7.37-7.37ZM404.63,41.66c-3.13,0-5.68-2.55-5.68-5.68s2.55-5.68,5.68-5.68c3.13,0,5.68,2.55,5.68,5.68s-2.55,5.68-5.68,5.68Z"/>
    </g>
  </g>
</svg>