<?xml version="1.0" encoding="UTF-8"?><svg id="Layer_1" xmlns="http://www.w3.org/2000/svg" viewBox="0 0 752.63 181.19"><defs><style>.cls-1{fill:#045946;}</style></defs><path class="cls-1" d="M147.8,174.82l-8.81,2.98c-6.75,2.29-13.66,3.38-20.51,3.38-23.8,0-46.59-13.25-57.76-35.41l-12.99-25.75c-6.47-12.86-19.42-21.34-33.8-22.16l-13.94-.78,7.61-11.7c5.39-8.26,12.95-15.01,21.86-19.53,13.49-6.8,28.84-7.94,43.22-3.19,14.38,4.73,26.02,14.76,32.82,28.24l42.3,83.92Z"/><path class="cls-1" d="M211.99,115.04l-8.82,2.98c-6.74,2.29-13.66,3.38-20.5,3.38-23.8,0-46.6-13.25-57.77-35.41l-12.98-25.75c-6.48-12.86-19.43-21.34-33.81-22.16l-13.94-.78,7.62-11.7c5.39-8.26,12.94-15.01,21.85-19.52,13.5-6.8,28.85-7.94,43.22-3.2,14.38,4.73,26.03,14.76,32.82,28.24l42.31,83.92Z"/><path class="cls-1" d="M256.96,104.74c2.09,5.23,5.27,9.49,9.53,12.78,4.26,3.29,9.15,4.93,14.68,4.93,4.03,0,7.92-.67,11.66-2.02,3.73-1.35,6.87-3.21,9.41-5.6.9-.75,1.91-1.08,3.03-1.01,1.12.08,2.05.49,2.8,1.23l12.78,12.11c.75.75,1.12,1.68,1.12,2.8s-.37,2.05-1.12,2.8c-4.93,5.23-10.76,9.19-17.48,11.88-6.72,2.69-14.12,4.03-22.19,4.03-7.47,0-14.38-1.35-20.73-4.03-6.35-2.69-11.92-6.5-16.7-11.43-5.23-5.23-9.27-11.43-12.1-18.61-2.84-7.17-4.26-14.79-4.26-22.86,0-7.77,1.42-15.05,4.26-21.86,2.84-6.8,6.69-12.74,11.54-17.82,4.86-5.08,10.57-9.08,17.15-11.99,6.57-2.91,13.6-4.37,21.07-4.37,6.87,0,13.26,1.27,19.16,3.81,5.9,2.54,11.1,6.05,15.58,10.54,1.94,1.79,3.81,3.89,5.6,6.28,1.79,2.39,3.36,5.16,4.71,8.29,1.34,3.14,2.43,6.76,3.25,10.87.82,4.11,1.23,8.78,1.23,14.01,0,3.59-.22,7.47-.67,11.66-.3,2.39-1.65,3.59-4.03,3.59h-69.26ZM280.72,61.92c-6.28,0-11.43,1.72-15.47,5.16-4.03,3.44-6.88,7.7-8.52,12.78h47.07c-1.65-4.78-4.37-8.97-8.18-12.55-3.81-3.59-8.78-5.38-14.91-5.38Z"/><path class="cls-1" d="M588.03,67.53c-.75,1.05-1.68,1.65-2.8,1.79-1.12.15-2.21-.15-3.25-.9-2.24-1.64-4.71-2.99-7.4-4.03-2.69-1.04-5.6-1.57-8.74-1.57-4.04,0-7.66.78-10.87,2.35-3.22,1.57-5.98,3.7-8.29,6.39-2.32,2.69-4.11,5.87-5.38,9.53-1.27,3.66-1.91,7.51-1.91,11.54,0,4.19.71,8.07,2.13,11.66,1.42,3.59,3.36,6.72,5.83,9.41,2.47,2.69,5.42,4.78,8.85,6.28,3.43,1.49,7.1,2.24,10.98,2.24,3.59,0,6.98-.75,10.2-2.24,3.21-1.49,5.94-3.59,8.18-6.28.9-.9,1.91-1.31,3.03-1.23,1.12.08,2.13.49,3.03,1.23l13,12.55c.9.75,1.31,1.68,1.23,2.8-.08,1.12-.49,2.13-1.23,3.03-4.78,5.08-10.39,9.12-16.81,12.11-6.43,2.99-13.38,4.48-20.85,4.48s-14.98-1.38-21.63-4.15c-6.65-2.76-12.44-6.69-17.37-11.77-4.93-5.08-8.78-11.02-11.54-17.82-2.77-6.8-4.15-14.23-4.15-22.3,0-7.32,1.31-14.38,3.92-21.18,2.61-6.8,6.31-12.81,11.1-18.04,4.78-5.23,10.42-9.45,16.92-12.67,6.5-3.21,13.71-4.89,21.63-5.04,10.91,0,21.29,3.44,31.16,10.31.9.6,1.49,1.42,1.79,2.47.3,1.05.07,2.09-.67,3.14l-10.09,15.92Z"/><path class="cls-1" d="M699.66,137.24c-4.04,2.99-8.67,5.64-13.9,7.96-5.23,2.32-10.46,3.47-15.69,3.47-7.77,0-14.95-1.42-21.52-4.26-6.58-2.84-12.22-6.8-16.92-11.88-4.71-5.08-8.41-11.06-11.1-17.93-2.69-6.87-4.04-14.35-4.04-22.42,0-7.77,1.42-15.05,4.26-21.86,2.84-6.8,6.72-12.78,11.66-17.93,4.93-5.16,10.65-9.23,17.15-12.22,6.5-2.99,13.48-4.48,20.96-4.48,5.23,0,10.38,1.16,15.47,3.47,5.08,2.32,9.64,4.97,13.67,7.96v-6.72c0-1.19.41-2.2,1.23-3.03.82-.82,1.83-1.23,3.03-1.23h0c12.01,0,21.74,9.73,21.74,21.74v68.59c0,12.01-9.73,21.74-21.74,21.74h0c-1.2,0-2.21-.41-3.03-1.23-.82-.82-1.23-1.83-1.23-3.03v-6.72ZM643.62,92.19c0,4.03.75,7.81,2.24,11.32,1.49,3.51,3.51,6.61,6.05,9.3,2.54,2.69,5.49,4.82,8.85,6.39,3.36,1.57,6.91,2.35,10.65,2.35,4.04,0,7.7-.78,10.98-2.35,3.29-1.57,6.16-3.7,8.63-6.39,2.46-2.69,4.37-5.79,5.72-9.3,1.35-3.51,2.02-7.28,2.02-11.32,0-4.03-.67-7.81-2.02-11.32-1.35-3.51-3.25-6.61-5.72-9.3-2.47-2.69-5.35-4.82-8.63-6.39-3.29-1.57-6.95-2.35-10.98-2.35-3.74,0-7.28.78-10.65,2.35s-6.32,3.7-8.85,6.39c-2.54,2.69-4.56,5.79-6.05,9.3-1.5,3.51-2.24,7.29-2.24,11.32Z"/><path class="cls-1" d="M502.86,72.91v68.31c0,3.85-3.14,6.99-7.01,6.99h-14.74c-1.19,0-2.2-.4-3.02-1.23-.83-.81-1.23-1.81-1.23-3.02v-62.53c0-6.12-1.34-10.87-4.03-14.23-1.01-1.25-2.17-2.26-3.54-3.07h-.02c-3.76-3.45-8.78-5.56-14.27-5.51-9.61.09-17.5,7.01-19.85,16-.49,1.86-.63,3.79-.63,5.69v55.29c0,6.97-5.65,12.61-12.61,12.61s-12.59-5.65-12.59-12.61v-56.21c0-5.74-2.33-10.93-6.09-14.7-4.03-4.03-9.75-6.43-16.04-6.03-11.05.72-19.38,10.4-19.38,21.46v24.73s-.31,39.09-.31,39.09c0,2.85-1.43,4.26-4.28,4.26h-17.48c-1.19,0-2.2-.4-3.02-1.23-.83-.81-1.23-1.81-1.23-3.02V40.41c0-1.19.4-2.2,1.23-3.02.83-.83,1.84-1.23,3.02-1.23h5.33c4.53,0,9.79,2.51,13.78,5.69,6.79-5.83,15.62-9.32,25.27-9.32,3.81,0,7.44.56,10.91,1.57.02,0,.07.02.09.02,3.58.49,7.21,1.7,10.53,3.83,1.7,1.1,4.23,3.02,6.68,6.27.6.65,1.25,1.39,1.97,2.17,3.38,3.83,9.19,4.35,13.2,1.19,3.43-2.71,7.46-5.29,12.21-7.39,3.02-1.34,7.91-3.47,14.76-4.19,3.54-.36,11.45-.76,19.42,2.4,4.86,1.93,8.38,4.62,8.87,5,1.05.81,2.06,1.68,3,2.62,3.38,3.29,6.07,7.21,8.09,11.76,2.02,4.57,3.02,9.61,3.02,15.15Z"/><path class="cls-1" d="M229.14,163.39c0-.09.03-.17.1-.24.06-.06.14-.1.24-.1h5.59c.09,0,.17.03.24.1.06.06.1.15.1.24v1.56c0,.09-.03.17-.1.24s-.14.1-.24.1h-3.74v2.41h3.22c.09,0,.17.03.24.1.06.06.1.14.1.24v1.54c0,.09-.03.17-.1.24-.06.06-.14.1-.24.1h-3.22v3.35h4.32c.09,0,.17.03.24.1.06.06.1.14.1.24v1.52c0,.09-.03.17-.1.24-.06.06-.14.1-.24.1h-6.18c-.09,0-.17-.03-.24-.1s-.1-.14-.1-.24v-11.72Z"/><path class="cls-1" d="M240.45,167.72v7.38c0,.09-.03.17-.1.24s-.14.1-.24.1h-1.54c-.09,0-.17-.03-.24-.1s-.1-.14-.1-.24v-11.72c0-.09.03-.17.1-.24.06-.06.14-.1.24-.1h.81c.11,0,.2.02.28.06.08.04.18.13.28.26l6.02,7.45v-7.44c0-.09.03-.17.1-.24.06-.06.14-.1.24-.1h1.54c.09,0,.17.03.24.1.06.06.1.15.1.24v11.72c0,.09-.03.17-.1.24-.06.06-.14.1-.24.1h-.81c-.11,0-.2-.02-.27-.06-.08-.04-.16-.12-.26-.24l-6.05-7.42Z"/><path class="cls-1" d="M249.68,163.51c-.06-.12-.06-.22,0-.32.06-.09.16-.14.29-.14h1.66c.15,0,.28.12.37.37l3.43,8.11,3.35-8.07c.06-.15.12-.26.19-.32.07-.06.14-.09.19-.09h1.68c.13,0,.22.05.28.14.06.09.06.2.02.32l-4.9,11.74s-.07.09-.13.13c-.07.04-.13.06-.19.06h-1.06c-.06,0-.12-.02-.18-.06-.06-.04-.1-.09-.12-.13l-4.9-11.74Z"/><path class="cls-1" d="M262.65,163.39c0-.09.03-.17.1-.24.06-.06.14-.1.24-.1h1.56c.09,0,.17.03.23.1.06.06.09.15.09.24v11.72c0,.09-.03.17-.09.24-.06.06-.14.1-.23.1h-1.56c-.09,0-.17-.03-.24-.1s-.1-.14-.1-.24v-11.72Z"/><path class="cls-1" d="M275.37,166.75c0,.57-.1,1.09-.3,1.56-.2.47-.48.88-.83,1.22-.09.09-.19.18-.27.26-.09.08-.2.16-.33.24l2.25,4.96c.06.12.06.22,0,.32-.06.09-.16.14-.29.14h-1.56c-.26,0-.44-.11-.55-.34l-2.02-4.46h-1.24v4.46c0,.09-.03.17-.1.24s-.14.1-.24.1h-1.54c-.09,0-.17-.03-.24-.1s-.1-.14-.1-.24v-11.72c0-.09.03-.17.1-.24.06-.06.14-.1.24-.1h3.19c.57,0,1.09.09,1.56.27.47.18.88.44,1.21.77.34.33.6.72.79,1.18.19.45.28.95.28,1.48ZM270.21,168.45h1.13c.27,0,.51-.05.71-.14.2-.09.37-.22.5-.37s.24-.33.31-.54c.07-.21.11-.42.11-.63,0-.41-.12-.77-.37-1.08-.25-.31-.61-.46-1.08-.46h-1.31v3.22Z"/><path class="cls-1" d="M276.41,169.25c0-.9.14-1.73.43-2.51.29-.78.7-1.45,1.22-2.02.53-.57,1.15-1.01,1.86-1.34.71-.32,1.5-.49,2.35-.49s1.63.16,2.35.49c.71.32,1.33.77,1.86,1.34.52.57.93,1.24,1.22,2.02.29.78.43,1.62.43,2.51s-.15,1.75-.43,2.52-.7,1.44-1.22,2.01c-.53.57-1.15,1.01-1.86,1.34-.71.32-1.5.49-2.35.49s-1.67-.16-2.39-.49c-.72-.32-1.34-.77-1.85-1.34s-.91-1.24-1.19-2.01c-.28-.77-.43-1.61-.43-2.52ZM278.76,169.25c0,.55.09,1.08.26,1.58s.41.93.73,1.31c.31.38.69.68,1.12.89s.92.33,1.45.33.97-.11,1.4-.32.79-.5,1.1-.88c.31-.37.55-.81.72-1.31.17-.5.26-1.04.26-1.6s-.09-1.1-.26-1.59c-.17-.5-.41-.93-.72-1.3-.31-.37-.67-.67-1.1-.89-.42-.22-.89-.33-1.4-.33s-.98.11-1.41.33c-.43.22-.81.51-1.12.89-.32.37-.57.81-.75,1.3-.18.5-.27,1.03-.27,1.59Z"/><path class="cls-1" d="M292.15,167.72v7.38c0,.09-.03.17-.1.24s-.14.1-.24.1h-1.54c-.09,0-.17-.03-.24-.1s-.1-.14-.1-.24v-11.72c0-.09.03-.17.1-.24.06-.06.14-.1.24-.1h.81c.11,0,.2.02.28.06.08.04.18.13.28.26l6.02,7.45v-7.44c0-.09.03-.17.1-.24.06-.06.14-.1.24-.1h1.54c.09,0,.17.03.24.1.06.06.1.15.1.24v11.72c0,.09-.03.17-.1.24-.06.06-.14.1-.24.1h-.81c-.11,0-.2-.02-.27-.06-.08-.04-.16-.12-.26-.24l-6.05-7.42Z"/><path class="cls-1" d="M314.07,163.05c.07,0,.14.04.21.11s.12.18.14.32l1.95,11.58c.04.26-.08.39-.34.39h-1.66c-.08,0-.16-.03-.22-.09s-.1-.12-.11-.19l-1.15-7.03-2.97,6.9c-.06.15-.13.26-.2.32-.08.06-.16.09-.26.09h-.9c-.21,0-.36-.11-.44-.34l-2.96-6.94-1.13,6.99c-.01.07-.05.14-.12.19s-.14.09-.22.09h-1.63c-.26,0-.37-.13-.34-.39l1.95-11.6c.02-.13.07-.23.14-.3s.14-.11.21-.11h1.26c.13,0,.25.11.35.34l3.42,8.14,3.4-8.13c.11-.24.23-.35.37-.35h1.26Z"/><path class="cls-1" d="M318.19,163.39c0-.09.03-.17.1-.24.06-.06.14-.1.24-.1h5.59c.09,0,.17.03.24.1.06.06.1.15.1.24v1.56c0,.09-.03.17-.1.24s-.14.1-.24.1h-3.74v2.41h3.22c.09,0,.17.03.24.1.06.06.1.14.1.24v1.54c0,.09-.03.17-.1.24-.06.06-.14.1-.24.1h-3.22v3.35h4.32c.09,0,.17.03.24.1.06.06.1.14.1.24v1.52c0,.09-.03.17-.1.24-.06.06-.14.1-.24.1h-6.18c-.09,0-.17-.03-.24-.1s-.1-.14-.1-.24v-11.72Z"/><path class="cls-1" d="M329.5,167.72v7.38c0,.09-.03.17-.1.24s-.14.1-.24.1h-1.54c-.09,0-.17-.03-.24-.1s-.1-.14-.1-.24v-11.72c0-.09.03-.17.1-.24.06-.06.14-.1.24-.1h.81c.11,0,.2.02.28.06.08.04.18.13.28.26l6.02,7.45v-7.44c0-.09.03-.17.1-.24.06-.06.14-.1.24-.1h1.54c.09,0,.17.03.24.1.06.06.1.15.1.24v11.72c0,.09-.03.17-.1.24-.06.06-.14.1-.24.1h-.81c-.11,0-.2-.02-.27-.06-.08-.04-.16-.12-.26-.24l-6.05-7.42Z"/><path class="cls-1" d="M339.04,163.39c0-.09.03-.17.1-.24s.14-.1.24-.1h6.8c.09,0,.17.03.24.1.06.06.1.15.1.24v1.56c0,.09-.03.17-.1.24-.07.06-.15.1-.24.1h-2.32v9.83c0,.09-.03.17-.1.24s-.14.1-.24.1h-1.56c-.09,0-.17-.03-.23-.1-.06-.06-.09-.14-.09-.24l.02-9.86h-2.28c-.09,0-.17-.03-.24-.1-.06-.06-.1-.14-.1-.24v-1.52Z"/><path class="cls-1" d="M358.94,174.98c.06.12.06.22,0,.32-.06.09-.16.14-.29.14h-1.5c-.14,0-.25-.03-.33-.08s-.14-.14-.2-.26l-1.4-3.13h-4.78l-1.4,3.13c-.11.22-.28.34-.51.34h-1.52c-.13,0-.23-.05-.29-.14-.06-.09-.07-.2,0-.32l5.35-11.58c.12-.24.29-.35.53-.35h.71c.22,0,.4.13.51.39l5.15,11.54ZM351.46,169.8h2.78l-1.33-3.12-1.45,3.12Z"/><path class="cls-1" d="M360.45,163.39c0-.09.03-.17.1-.24.06-.06.14-.1.24-.1h1.56c.09,0,.17.03.24.1.06.06.1.15.1.24l-.02,9.93h4.53c.09,0,.17.03.24.1s.1.14.1.24v1.45c0,.09-.03.17-.1.24s-.14.1-.24.1h-6.41c-.09,0-.17-.03-.24-.1s-.1-.14-.1-.24v-11.72Z"/><path class="cls-1" d="M385.29,163.05c.07,0,.14.04.21.11.07.07.12.18.14.32l1.95,11.58c.04.26-.08.39-.34.39h-1.66c-.08,0-.16-.03-.22-.09-.07-.06-.1-.12-.12-.19l-1.15-7.03-2.97,6.9c-.06.15-.13.26-.2.32-.08.06-.16.09-.26.09h-.9c-.21,0-.36-.11-.44-.34l-2.96-6.94-1.13,6.99c-.01.07-.05.14-.12.19s-.14.09-.22.09h-1.63c-.26,0-.37-.13-.34-.39l1.95-11.6c.02-.13.07-.23.14-.3s.14-.11.21-.11h1.26c.13,0,.25.11.35.34l3.42,8.14,3.4-8.13c.11-.24.23-.35.37-.35h1.26Z"/><path class="cls-1" d="M400.03,174.98c.06.12.06.22,0,.32-.06.09-.16.14-.29.14h-1.5c-.14,0-.25-.03-.33-.08-.08-.05-.14-.14-.2-.26l-1.4-3.13h-4.78l-1.4,3.13c-.11.22-.28.34-.51.34h-1.52c-.13,0-.23-.05-.29-.14-.06-.09-.07-.2,0-.32l5.35-11.58c.12-.24.29-.35.53-.35h.71c.22,0,.4.13.51.39l5.15,11.54ZM392.54,169.8h2.78l-1.33-3.12-1.45,3.12Z"/><path class="cls-1" d="M403.75,167.72v7.38c0,.09-.03.17-.1.24-.06.06-.14.1-.24.1h-1.54c-.09,0-.17-.03-.24-.1-.07-.06-.1-.14-.1-.24v-11.72c0-.09.03-.17.1-.24.06-.06.14-.1.24-.1h.81c.11,0,.2.02.28.06.08.04.18.13.28.26l6.02,7.45v-7.44c0-.09.03-.17.1-.24.06-.06.14-.1.24-.1h1.54c.09,0,.17.03.24.1.07.06.1.15.1.24v11.72c0,.09-.03.17-.1.24-.06.06-.14.1-.24.1h-.81c-.11,0-.2-.02-.27-.06-.08-.04-.16-.12-.26-.24l-6.05-7.42Z"/><path class="cls-1" d="M425.24,174.98c.06.12.06.22,0,.32-.07.09-.16.14-.29.14h-1.5c-.14,0-.25-.03-.33-.08-.08-.05-.15-.14-.2-.26l-1.4-3.13h-4.78l-1.4,3.13c-.11.22-.28.34-.51.34h-1.52c-.13,0-.23-.05-.29-.14-.06-.09-.07-.2,0-.32l5.35-11.58c.12-.24.29-.35.53-.35h.71c.22,0,.4.13.51.39l5.15,11.54ZM417.75,169.8h2.78l-1.33-3.12-1.45,3.12Z"/><path class="cls-1" d="M433.65,165.76c-.06.09-.14.15-.23.16s-.18-.01-.27-.07c-.31-.24-.63-.41-.96-.53-.34-.12-.71-.18-1.11-.18-.52,0-1,.12-1.43.35-.44.23-.81.54-1.13.92-.32.38-.57.82-.75,1.32s-.27,1-.27,1.52c0,.57.09,1.1.26,1.6.17.5.41.94.73,1.31.31.37.69.66,1.13.88.44.21.93.32,1.46.32.42,0,.81-.07,1.16-.21.35-.14.65-.34.89-.58s.45-.54.59-.89c.15-.34.24-.71.27-1.1h-3.29c-.09,0-.17-.03-.24-.1-.07-.06-.1-.14-.1-.24v-1.52c0-.09.03-.17.1-.24.06-.06.14-.1.24-.1h5.42c.09,0,.17.03.24.1.06.06.1.14.1.24v.66c0,.99-.14,1.87-.42,2.65-.28.77-.67,1.43-1.15,1.96-.48.53-1.06.94-1.73,1.21-.67.28-1.38.42-2.13.42-.86,0-1.65-.16-2.37-.49-.72-.32-1.34-.77-1.85-1.35s-.92-1.25-1.2-2.02c-.29-.77-.43-1.61-.43-2.5,0-.8.14-1.58.41-2.35s.66-1.44,1.17-2.04c.51-.6,1.12-1.07,1.85-1.43.73-.36,1.54-.54,2.45-.54,1.35,0,2.48.37,3.42,1.12.17.13.19.28.09.44l-.88,1.31Z"/><path class="cls-1" d="M438.25,163.39c0-.09.03-.17.1-.24.06-.06.14-.1.24-.1h5.59c.09,0,.17.03.24.1.06.06.1.15.1.24v1.56c0,.09-.03.17-.1.24-.07.06-.14.1-.24.1h-3.74v2.41h3.22c.09,0,.17.03.24.1.06.06.1.14.1.24v1.54c0,.09-.03.17-.1.24-.07.06-.14.1-.24.1h-3.22v3.35h4.32c.09,0,.17.03.24.1.06.06.1.14.1.24v1.52c0,.09-.03.17-.1.24-.07.06-.14.1-.24.1h-6.18c-.09,0-.17-.03-.24-.1-.07-.06-.1-.14-.1-.24v-11.72Z"/><path class="cls-1" d="M458.4,163.05c.07,0,.14.04.21.11.07.07.12.18.14.32l1.95,11.58c.04.26-.08.39-.34.39h-1.66c-.08,0-.16-.03-.22-.09-.07-.06-.1-.12-.12-.19l-1.15-7.03-2.97,6.9c-.06.15-.13.26-.2.32-.08.06-.16.09-.26.09h-.9c-.21,0-.36-.11-.44-.34l-2.96-6.94-1.13,6.99c-.01.07-.05.14-.12.19-.06.06-.14.09-.22.09h-1.63c-.26,0-.37-.13-.34-.39l1.95-11.6c.02-.13.07-.23.14-.3.07-.07.14-.11.21-.11h1.26c.13,0,.25.11.35.34l3.42,8.14,3.4-8.13c.11-.24.23-.35.37-.35h1.26Z"/><path class="cls-1" d="M462.53,163.39c0-.09.03-.17.1-.24.06-.06.14-.1.24-.1h5.59c.09,0,.17.03.24.1.06.06.1.15.1.24v1.56c0,.09-.03.17-.1.24-.07.06-.14.1-.24.1h-3.74v2.41h3.22c.09,0,.17.03.24.1.06.06.1.14.1.24v1.54c0,.09-.03.17-.1.24-.07.06-.14.1-.24.1h-3.22v3.35h4.32c.09,0,.17.03.24.1.06.06.1.14.1.24v1.52c0,.09-.03.17-.1.24-.07.06-.14.1-.24.1h-6.18c-.09,0-.17-.03-.24-.1-.07-.06-.1-.14-.1-.24v-11.72Z"/><path class="cls-1" d="M473.84,167.72v7.38c0,.09-.03.17-.1.24-.06.06-.14.1-.24.1h-1.54c-.09,0-.17-.03-.24-.1-.07-.06-.1-.14-.1-.24v-11.72c0-.09.03-.17.1-.24.06-.06.14-.1.24-.1h.81c.11,0,.2.02.28.06.08.04.18.13.28.26l6.02,7.45v-7.44c0-.09.03-.17.1-.24.06-.06.14-.1.24-.1h1.54c.09,0,.17.03.24.1.07.06.1.15.1.24v11.72c0,.09-.03.17-.1.24-.06.06-.14.1-.24.1h-.81c-.11,0-.2-.02-.27-.06-.08-.04-.16-.12-.26-.24l-6.05-7.42Z"/><path class="cls-1" d="M483.38,163.39c0-.09.03-.17.1-.24.06-.06.14-.1.24-.1h6.8c.09,0,.17.03.24.1.06.06.1.15.1.24v1.56c0,.09-.03.17-.1.24-.07.06-.14.1-.24.1h-2.32v9.83c0,.09-.03.17-.1.24-.06.06-.14.1-.24.1h-1.56c-.09,0-.17-.03-.23-.1-.06-.06-.09-.14-.09-.24l.02-9.86h-2.28c-.09,0-.17-.03-.24-.1-.07-.06-.1-.14-.1-.24v-1.52Z"/><path class="cls-1" d="M505.6,172.36c.4.4.66.83.77,1.27s.17.93.17,1.43c0,.09-.04.18-.11.26-.07.08-.15.12-.25.12h-1.47c-.09,0-.17-.04-.23-.11s-.09-.17-.09-.3c0-.4-.13-.74-.39-1.03-.42.47-.92.83-1.49,1.09s-1.16.38-1.79.38c-.58,0-1.14-.11-1.67-.32s-1.01-.52-1.43-.94c-.4-.4-.73-.87-.97-1.4-.25-.53-.38-1.04-.41-1.54-.02-.68.07-1.29.27-1.81.21-.52.5-.98.89-1.35.15-.15.31-.29.46-.41.15-.12.33-.22.53-.32-.13-.32-.24-.66-.32-1.02-.08-.36-.13-.71-.14-1.04-.01-.42.05-.83.18-1.23.13-.4.36-.76.69-1.09.27-.26.58-.47.92-.62.34-.15.71-.23,1.12-.23.72,0,1.32.22,1.81.67.21.2.4.46.55.78.15.32.23.65.23.99s-.07.7-.2,1.03c-.13.33-.31.62-.55.87-.19.19-.42.34-.69.46-.06.02-.13.04-.2.04s-.13-.02-.17-.07c-.14-.17-.27-.33-.38-.49-.11-.16-.22-.33-.31-.5-.04-.06-.04-.13-.03-.21s.06-.15.12-.21c.12-.09.21-.19.27-.3.06-.11.09-.24.09-.39,0-.17-.05-.31-.14-.43-.09-.12-.22-.18-.39-.18-.27,0-.47.1-.6.3-.13.2-.19.41-.19.62,0,.44.1.91.31,1.43.21.51.53,1.07.98,1.67.38.52.72.95,1.02,1.3.3.35.57.65.81.91-.04-.26-.12-.52-.24-.78-.12-.26-.22-.45-.27-.57-.05-.09-.06-.19-.04-.27.02-.09.07-.16.17-.2l1.33-.67c.06-.02.13-.03.21-.02.08.01.15.05.19.11.28.33.49.7.62,1.12s.19.83.19,1.26c0,.25-.02.5-.05.74-.04.25-.09.48-.18.71.09.09.18.18.26.26.08.08.16.16.24.24ZM500.7,170.95c-.22-.24-.45-.51-.66-.83-.22-.32-.44-.66-.66-1.01-.29.2-.52.47-.68.81-.16.34-.24.68-.24,1.02,0,.31.07.61.2.92.13.31.3.57.51.8.45.45.95.67,1.5.67.32,0,.62-.06.91-.19.29-.12.53-.29.73-.49-.31-.31-.59-.6-.84-.87s-.51-.55-.77-.83Z"/><path class="cls-1" d="M520.19,165.65c-.05.07-.11.11-.2.12s-.17,0-.25-.05c-.27-.17-.6-.31-.97-.42-.38-.12-.76-.17-1.15-.16-.51,0-.98.11-1.41.33-.43.22-.81.51-1.12.89-.32.37-.57.81-.74,1.3s-.26,1.03-.25,1.59c.01.59.1,1.14.27,1.64s.41.94.72,1.3c.31.37.68.65,1.12.86.44.21.93.31,1.47.31.52-.01.99-.1,1.43-.27.43-.17.86-.4,1.28-.71.08-.06.17-.08.27-.06.09.02.17.07.23.15l.85,1.27c.11.17.08.31-.09.44-.65.5-1.28.86-1.89,1.08-.61.22-1.3.34-2.05.34-.91.01-1.73-.13-2.45-.43-.73-.3-1.35-.73-1.86-1.29-.51-.56-.91-1.23-1.19-2.01s-.42-1.64-.43-2.58c-.01-.8.12-1.58.38-2.35s.65-1.44,1.14-2.04c.5-.6,1.1-1.09,1.81-1.45.71-.37,1.5-.55,2.39-.55.6-.01,1.2.06,1.78.21s1.16.44,1.73.85c.08.06.13.13.14.22.01.09-.01.17-.07.26l-.87,1.22Z"/><path class="cls-1" d="M522.08,169.25c0-.9.14-1.73.43-2.51.29-.78.7-1.45,1.22-2.02s1.14-1.01,1.86-1.34c.71-.32,1.5-.49,2.35-.49s1.63.16,2.35.49c.71.32,1.33.77,1.86,1.34s.93,1.24,1.22,2.02c.29.78.43,1.62.43,2.51s-.14,1.75-.43,2.52-.7,1.44-1.22,2.01-1.14,1.01-1.86,1.34c-.71.32-1.5.49-2.35.49s-1.67-.16-2.39-.49c-.72-.32-1.34-.77-1.85-1.34s-.91-1.24-1.2-2.01-.42-1.61-.42-2.52ZM524.43,169.25c0,.55.09,1.08.26,1.58s.41.93.73,1.31c.31.38.69.68,1.12.89.44.22.92.33,1.45.33s.97-.11,1.4-.32.79-.5,1.1-.88c.31-.37.55-.81.72-1.31.17-.5.26-1.04.26-1.6s-.08-1.1-.26-1.59c-.17-.5-.41-.93-.72-1.3-.31-.37-.67-.67-1.1-.89-.42-.22-.89-.33-1.4-.33s-.98.11-1.41.33c-.43.22-.81.51-1.12.89-.32.37-.57.81-.75,1.3-.18.5-.27,1.03-.27,1.59Z"/><path class="cls-1" d="M546.65,163.05c.07,0,.14.04.21.11.07.07.12.18.14.32l1.95,11.58c.04.26-.08.39-.34.39h-1.66c-.08,0-.16-.03-.22-.09-.07-.06-.1-.12-.12-.19l-1.15-7.03-2.97,6.9c-.06.15-.13.26-.2.32-.08.06-.16.09-.26.09h-.9c-.21,0-.36-.11-.44-.34l-2.96-6.94-1.13,6.99c-.01.07-.05.14-.12.19-.06.06-.14.09-.22.09h-1.63c-.26,0-.37-.13-.34-.39l1.95-11.6c.02-.13.07-.23.14-.3.07-.07.14-.11.21-.11h1.26c.13,0,.25.11.35.34l3.42,8.14,3.4-8.13c.11-.24.23-.35.37-.35h1.26Z"/><path class="cls-1" d="M561.83,163.05c.07,0,.14.04.21.11.07.07.12.18.14.32l1.95,11.58c.04.26-.08.39-.34.39h-1.66c-.08,0-.16-.03-.22-.09-.07-.06-.1-.12-.12-.19l-1.15-7.03-2.97,6.9c-.06.15-.13.26-.2.32-.08.06-.16.09-.26.09h-.9c-.21,0-.36-.11-.44-.34l-2.96-6.94-1.13,6.99c-.01.07-.05.14-.12.19-.06.06-.14.09-.22.09h-1.63c-.26,0-.37-.13-.34-.39l1.95-11.6c.02-.13.07-.23.14-.3.07-.07.14-.11.21-.11h1.26c.13,0,.25.11.35.34l3.42,8.14,3.4-8.13c.11-.24.23-.35.37-.35h1.26Z"/><path class="cls-1" d="M577,163.05c.07,0,.14.04.21.11.07.07.12.18.14.32l1.95,11.58c.04.26-.08.39-.34.39h-1.66c-.08,0-.16-.03-.22-.09-.07-.06-.1-.12-.12-.19l-1.15-7.03-2.97,6.9c-.06.15-.13.26-.2.32-.08.06-.16.09-.26.09h-.9c-.21,0-.36-.11-.44-.34l-2.96-6.94-1.13,6.99c-.01.07-.05.14-.12.19-.06.06-.14.09-.22.09h-1.63c-.26,0-.37-.13-.34-.39l1.95-11.6c.02-.13.07-.23.14-.3.07-.07.14-.11.21-.11h1.26c.13,0,.25.11.35.34l3.42,8.14,3.4-8.13c.11-.24.23-.35.37-.35h1.26Z"/><path class="cls-1" d="M589.14,169.65c0,1.95-.36,3.43-1.08,4.43-.72,1.01-1.86,1.51-3.42,1.51-.8,0-1.48-.13-2.04-.38-.56-.25-1.02-.63-1.36-1.12-.35-.49-.6-1.09-.76-1.81-.16-.71-.24-1.53-.24-2.45v-6.46c0-.09.03-.17.1-.24.06-.06.14-.1.24-.1h1.54c.09,0,.17.03.24.1.06.06.1.15.1.24v5.86c0,.63.03,1.19.08,1.7s.16.94.32,1.29c.16.35.38.63.67.82.29.19.66.29,1.12.29s.84-.1,1.13-.29c.29-.19.53-.47.7-.82.17-.35.29-.78.34-1.29.06-.51.09-1.07.09-1.7l.02-5.86c0-.09.03-.17.1-.24.06-.06.14-.1.24-.1h1.54c.09,0,.17.03.24.1.07.06.1.15.1.24v6.27Z"/><path class="cls-1" d="M593.6,167.72v7.38c0,.09-.03.17-.1.24-.06.06-.14.1-.24.1h-1.54c-.09,0-.17-.03-.24-.1-.07-.06-.1-.14-.1-.24v-11.72c0-.09.03-.17.1-.24.06-.06.14-.1.24-.1h.81c.11,0,.2.02.28.06.08.04.18.13.28.26l6.02,7.45v-7.44c0-.09.03-.17.1-.24.06-.06.14-.1.24-.1h1.54c.09,0,.17.03.24.1.07.06.1.15.1.24v11.72c0,.09-.03.17-.1.24-.06.06-.14.1-.24.1h-.81c-.11,0-.2-.02-.27-.06-.08-.04-.16-.12-.26-.24l-6.05-7.42Z"/><path class="cls-1" d="M604.47,163.39c0-.09.03-.17.1-.24.06-.06.14-.1.24-.1h1.56c.09,0,.17.03.23.1.06.06.09.15.09.24v11.72c0,.09-.03.17-.09.24-.06.06-.14.1-.23.1h-1.56c-.09,0-.17-.03-.24-.1-.07-.06-.1-.14-.1-.24v-11.72Z"/><path class="cls-1" d="M608.49,163.39c0-.09.03-.17.1-.24.06-.06.14-.1.24-.1h6.8c.09,0,.17.03.24.1.06.06.1.15.1.24v1.56c0,.09-.03.17-.1.24-.07.06-.14.1-.24.1h-2.32v9.83c0,.09-.03.17-.1.24-.06.06-.14.1-.24.1h-1.56c-.09,0-.17-.03-.23-.1-.06-.06-.09-.14-.09-.24l.02-9.86h-2.28c-.09,0-.17-.03-.24-.1-.07-.06-.1-.14-.1-.24v-1.52Z"/><path class="cls-1" d="M624.66,163.05c.13,0,.23.05.29.14.06.09.07.2,0,.32l-3.31,7.65v3.95c0,.09-.03.17-.1.24-.06.06-.14.1-.24.1h-1.54c-.09,0-.17-.03-.24-.1-.07-.06-.1-.14-.1-.24v-3.81l-3.31-7.79c-.06-.12-.06-.22,0-.32.06-.09.16-.14.29-.14h1.68c.06,0,.12.03.19.08.06.05.13.14.19.27l2.07,4.96,2.09-4.99c.08-.21.2-.32.35-.32h1.66Z"/><path class="cls-1" d="M641.99,174.98c.06.12.06.22,0,.32-.07.09-.16.14-.29.14h-1.5c-.14,0-.25-.03-.33-.08-.08-.05-.15-.14-.2-.26l-1.4-3.13h-4.78l-1.4,3.13c-.11.22-.28.34-.51.34h-1.52c-.13,0-.23-.05-.29-.14-.06-.09-.07-.2,0-.32l5.35-11.58c.12-.24.29-.35.53-.35h.71c.22,0,.4.13.51.39l5.15,11.54ZM634.5,169.8h2.78l-1.33-3.12-1.45,3.12Z"/><path class="cls-1" d="M648.17,168.47l-1.82,6.73c-.02.06-.07.12-.13.17-.06.05-.13.08-.19.08h-1.49c-.17,0-.27-.08-.32-.23l-3.45-11.72c-.04-.13-.02-.24.04-.32s.16-.12.27-.12h1.66c.17,0,.28.13.35.39l2.18,7.51,2.09-7.65c.02-.06.06-.12.12-.17.06-.05.12-.08.19-.08h1.03c.07,0,.13.03.19.08.06.05.1.11.12.17l2.12,7.63,2.12-7.51c.07-.25.19-.37.35-.37h1.68c.12,0,.21.04.27.12.06.08.08.19.04.32l-3.49,11.72c-.05.15-.15.23-.32.23h-1.49c-.07,0-.14-.03-.19-.08-.06-.05-.1-.11-.12-.17l-1.86-6.73Z"/><path class="cls-1" d="M666.67,174.98c.06.12.06.22,0,.32-.07.09-.16.14-.29.14h-1.5c-.14,0-.25-.03-.33-.08-.08-.05-.15-.14-.2-.26l-1.4-3.13h-4.78l-1.4,3.13c-.11.22-.28.34-.51.34h-1.52c-.13,0-.23-.05-.29-.14-.06-.09-.07-.2,0-.32l5.35-11.58c.12-.24.29-.35.53-.35h.71c.22,0,.4.13.51.39l5.15,11.54ZM659.18,169.8h2.78l-1.33-3.12-1.45,3.12Z"/><path class="cls-1" d="M675.53,166.75c0,.57-.1,1.09-.3,1.56-.2.47-.48.88-.83,1.22-.09.09-.19.18-.27.26-.09.08-.2.16-.33.24l2.25,4.96c.06.12.06.22,0,.32-.07.09-.16.14-.29.14h-1.56c-.26,0-.44-.11-.55-.34l-2.02-4.46h-1.24v4.46c0,.09-.03.17-.1.24-.06.06-.14.1-.24.1h-1.54c-.09,0-.17-.03-.24-.1-.07-.06-.1-.14-.1-.24v-11.72c0-.09.03-.17.1-.24.06-.06.14-.1.24-.1h3.19c.57,0,1.09.09,1.56.27.47.18.88.44,1.21.77.34.33.6.72.79,1.18.19.45.28.95.28,1.48ZM670.38,168.45h1.13c.27,0,.51-.05.71-.14.2-.09.37-.22.5-.37s.24-.33.31-.54c.07-.21.11-.42.11-.63,0-.41-.12-.77-.37-1.08-.25-.31-.61-.46-1.08-.46h-1.31v3.22Z"/><path class="cls-1" d="M677.91,163.39c0-.09.03-.17.1-.24.06-.06.14-.1.24-.1h5.59c.09,0,.17.03.24.1.06.06.1.15.1.24v1.56c0,.09-.03.17-.1.24-.07.06-.14.1-.24.1h-3.74v2.41h3.22c.09,0,.17.03.24.1.06.06.1.14.1.24v1.54c0,.09-.03.17-.1.24-.07.06-.14.1-.24.1h-3.22v3.35h4.32c.09,0,.17.03.24.1.06.06.1.14.1.24v1.52c0,.09-.03.17-.1.24-.07.06-.14.1-.24.1h-6.18c-.09,0-.17-.03-.24-.1-.07-.06-.1-.14-.1-.24v-11.72Z"/><path class="cls-1" d="M689.22,167.72v7.38c0,.09-.03.17-.1.24-.06.06-.14.1-.24.1h-1.54c-.09,0-.17-.03-.24-.1-.07-.06-.1-.14-.1-.24v-11.72c0-.09.03-.17.1-.24.06-.06.14-.1.24-.1h.81c.11,0,.2.02.28.06.08.04.18.13.28.26l6.02,7.45v-7.44c0-.09.03-.17.1-.24.06-.06.14-.1.24-.1h1.54c.09,0,.17.03.24.1.07.06.1.15.1.24v11.72c0,.09-.03.17-.1.24-.06.06-.14.1-.24.1h-.81c-.11,0-.2-.02-.27-.06-.08-.04-.16-.12-.26-.24l-6.05-7.42Z"/><path class="cls-1" d="M700.09,163.39c0-.09.03-.17.1-.24.06-.06.14-.1.24-.1h5.59c.09,0,.17.03.24.1.06.06.1.15.1.24v1.56c0,.09-.03.17-.1.24-.07.06-.14.1-.24.1h-3.74v2.41h3.22c.09,0,.17.03.24.1.06.06.1.14.1.24v1.54c0,.09-.03.17-.1.24-.07.06-.14.1-.24.1h-3.22v3.35h4.32c.09,0,.17.03.24.1.06.06.1.14.1.24v1.52c0,.09-.03.17-.1.24-.07.06-.14.1-.24.1h-6.18c-.09,0-.17-.03-.24-.1-.07-.06-.1-.14-.1-.24v-11.72Z"/><path class="cls-1" d="M711.95,165.03c-.24,0-.45.06-.63.19-.18.13-.27.32-.27.57,0,.2.04.39.13.58.09.18.21.36.36.52.15.17.32.33.51.5.19.17.39.34.6.51.31.27.62.55.95.82.32.28.62.58.89.91s.5.69.67,1.08c.18.39.27.83.28,1.31.01.54-.07,1.04-.26,1.48-.18.44-.44.82-.76,1.12-.33.31-.71.55-1.16.72-.45.17-.94.26-1.47.26-.78.02-1.48-.11-2.09-.39-.61-.28-1.17-.67-1.66-1.17-.06-.06-.09-.13-.1-.21s.01-.15.06-.21l.94-1.27c.06-.08.14-.13.23-.13.09,0,.18.02.27.08.32.3.68.55,1.08.76.4.21.82.31,1.26.3.38-.01.69-.13.93-.36.24-.23.36-.52.36-.86,0-.21-.06-.42-.18-.61s-.27-.38-.44-.57c-.18-.18-.37-.35-.57-.51-.2-.16-.38-.31-.55-.45-.32-.26-.64-.54-.96-.83-.32-.29-.61-.61-.86-.95s-.46-.69-.63-1.07c-.17-.38-.25-.78-.25-1.2,0-.47.09-.89.26-1.27.17-.37.4-.69.69-.96.29-.27.62-.47,1-.61s.77-.21,1.17-.21c.7,0,1.28.08,1.75.24.47.16.89.36,1.26.61.06.05.1.11.12.19s.02.16-.02.23l-.73,1.35c-.05.09-.11.15-.19.18-.08.02-.17.02-.27-.02-.24-.13-.49-.27-.77-.42s-.6-.22-.98-.22Z"/><path class="cls-1" d="M720.13,165.03c-.24,0-.45.06-.63.19-.18.13-.27.32-.27.57,0,.2.04.39.13.58.09.18.21.36.36.52.15.17.32.33.51.5.19.17.39.34.6.51.31.27.62.55.95.82.32.28.62.58.89.91s.5.69.67,1.08c.18.39.27.83.28,1.31.01.54-.07,1.04-.26,1.48-.18.44-.44.82-.76,1.12-.33.31-.71.55-1.16.72-.45.17-.94.26-1.47.26-.78.02-1.48-.11-2.09-.39-.61-.28-1.17-.67-1.66-1.17-.06-.06-.09-.13-.1-.21s.01-.15.06-.21l.94-1.27c.06-.08.14-.13.23-.13.09,0,.18.02.27.08.32.3.68.55,1.08.76.4.21.82.31,1.26.3.38-.01.69-.13.93-.36.24-.23.36-.52.36-.86,0-.21-.06-.42-.18-.61s-.27-.38-.44-.57c-.18-.18-.37-.35-.57-.51-.2-.16-.38-.31-.55-.45-.32-.26-.64-.54-.96-.83-.32-.29-.61-.61-.86-.95s-.46-.69-.63-1.07c-.17-.38-.25-.78-.25-1.2,0-.47.09-.89.26-1.27.17-.37.4-.69.69-.96.29-.27.62-.47,1-.61s.77-.21,1.17-.21c.7,0,1.28.08,1.75.24.47.16.89.36,1.26.61.06.05.1.11.12.19s.02.16-.02.23l-.73,1.35c-.05.09-.11.15-.19.18-.08.02-.17.02-.27-.02-.24-.13-.49-.27-.77-.42s-.6-.22-.98-.22Z"/><path class="cls-1" d="M743.26,44.65l-.65-3.48c-.09-.48-.21-.85-.38-1.11-.17-.25-.41-.43-.72-.53s-.74-.15-1.3-.15h-3.94s0,5.26,0,5.26h-1.56v-13.02h5.56c.86,0,1.61.14,2.26.41.65.27,1.15.66,1.51,1.15s.53,1.07.53,1.73c0,.9-.29,1.66-.86,2.26-.57.6-1.32.94-2.25,1.01v.11c.83.05,1.43.26,1.81.63.38.37.65.97.81,1.8l.78,3.9h-1.6ZM742.21,37.28c.51-.46.77-1.08.77-1.85,0-.72-.26-1.3-.77-1.73-.51-.43-1.19-.65-2.04-.65h-3.9s0,4.93,0,4.93h3.9c.84,0,1.52-.23,2.04-.7Z"/><path class="cls-1" d="M739.16,24.75c-7.43,0-13.47,6.04-13.47,13.47,0,7.43,6.04,13.47,13.47,13.47s13.47-6.04,13.47-13.47c0-7.43-6.04-13.47-13.47-13.47ZM739.16,48.59c-5.72,0-10.37-4.65-10.37-10.37,0-5.72,4.65-10.37,10.37-10.37s10.37,4.65,10.37,10.37c0,5.72-4.65,10.37-10.37,10.37Z"/></svg>